<?xml version="1.0" encoding="UTF-8"?>
<svg version="1.1" xmlns="http://www.w3.org/2000/svg" width="962" height="146">
<path d="M0 0 C1.06944351 -0.01283524 2.13888702 -0.02567047 3.24073792 -0.03889465 C4.99510414 -0.04997505 4.99510414 -0.04997505 6.78491211 -0.0612793 C7.9885289 -0.06935104 9.19214569 -0.07742279 10.43223572 -0.08573914 C12.99549916 -0.09961318 15.55878133 -0.11032036 18.12207031 -0.11816406 C21.99378346 -0.13519682 25.86460205 -0.1790313 29.73608398 -0.22338867 C51.93638038 -0.36438715 72.148646 1.74867438 88.88647461 17.9934082 C89.58385742 18.71399414 90.28124023 19.43458008 90.99975586 20.17700195 C91.58370117 20.76352539 92.16764648 21.35004883 92.76928711 21.9543457 C100.94978939 30.75615195 103.61924112 41.74349518 105.99975586 53.17700195 C106.18924805 54.05227539 106.37874023 54.92754883 106.57397461 55.8293457 C108.69681687 69.18270834 103.67668796 83.82533748 97.24975586 95.30200195 C85.36743252 110.48497066 71.32058311 119.61726591 51.99975586 122.17700195 C47.40921556 122.4259202 42.83420124 122.41146292 38.23803711 122.37231445 C36.96623093 122.36948456 35.69442474 122.36665466 34.38407898 122.36373901 C31.04188079 122.35451178 27.69996873 122.33661921 24.35784912 122.31433105 C20.93186889 122.29368215 17.50585882 122.28469705 14.07983398 122.2746582 C7.38639725 122.25272021 0.69309303 122.21933538 -6.00024414 122.17700195 C-6.02357345 106.41783452 -6.04122347 90.65867172 -6.05205631 74.89949131 C-6.0572192 67.58272793 -6.06426177 60.26597526 -6.07568359 52.94921875 C-6.08563065 46.57417177 -6.09209762 40.19913255 -6.09433264 33.82407802 C-6.09563971 30.44652181 -6.09872533 27.06898779 -6.1059742 23.69143867 C-6.11318027 19.92692852 -6.11423527 16.1624651 -6.11376953 12.39794922 C-6.11916245 10.70618309 -6.11916245 10.70618309 -6.12466431 8.98023987 C-6.12328964 7.96075256 -6.12191498 6.94126526 -6.12049866 5.8908844 C-6.12142045 4.99951058 -6.12234224 4.10813677 -6.12329197 3.18975163 C-5.87973209 -0.79426891 -3.43264098 0.0357828 0 0 Z M0.99975586 7.17700195 C0.99975586 43.14700195 0.99975586 79.11700195 0.99975586 116.17700195 C45.43858224 118.64345327 45.43858224 118.64345327 84.03100586 100.30200195 C85.83511715 98.33963529 87.43172714 96.33205651 88.99975586 94.17700195 C89.53342773 93.46157227 90.06709961 92.74614258 90.61694336 92.0090332 C98.82550502 79.81870656 100.64828361 64.38014712 98.31225586 50.11450195 C94.83982087 35.26019672 86.63423295 22.81277777 73.58959961 14.6730957 C51.35200211 2.86708118 25.23713954 7.17700195 0.99975586 7.17700195 Z " fill="#E4C590" transform="translate(846.000244140625,12.822998046875)"/>
<path d="M0 0 C11.80429466 9.47639711 19.60577506 22.84648494 22.23828125 37.796875 C23.60575336 58.91603138 20.95193483 75.57163436 6.921875 92.0859375 C-5.21529497 104.34677587 -20.01282373 110.87177069 -37.29516602 111.17749023 C-56.64972042 111.13555385 -71.98647637 106.95444843 -86.4453125 93.23828125 C-99.3808184 79.60473793 -104.34191456 64.17790053 -104.00390625 45.625 C-102.96107323 29.14151028 -96.39817331 14.56752261 -84.76171875 2.796875 C-60.74914986 -17.96858524 -25.28182979 -18.87064807 0 0 Z M-84.5390625 13.765625 C-95.0942209 26.8722848 -97.1199866 42.53161747 -95.76171875 58.796875 C-93.80479758 72.11271998 -86.81099711 84.07747741 -76.515625 92.671875 C-63.23993323 102.52774857 -47.73544725 106.57963908 -31.37890625 104.33203125 C-15.51882352 101.38658731 -2.77613111 93.54818808 6.67578125 80.421875 C14.97217604 66.84818766 17.38512104 51.58609234 14.5546875 36.04296875 C10.25906007 21.231075 2.37378624 9.24718625 -10.96875 1.296875 C-36.16503214 -12.23511429 -65.327477 -7.51490048 -84.5390625 13.765625 Z " fill="#E4C590" transform="translate(361.76171875,25.203125)"/>
<path d="M0 0 C1.18070068 0.00737183 1.18070068 0.00737183 2.38525391 0.01489258 C19.10976311 0.34828854 34.57369396 7.21915319 46.875 18.4375 C58.62080425 30.821965 63.4147327 45.81037616 63.5 62.4375 C63.520625 63.41976562 63.54125 64.40203125 63.5625 65.4140625 C63.64957566 81.95843708 56.76282892 96.54624403 45.25 108.3125 C29.71961976 121.61776728 12.75334741 125.60279171 -7.29443359 124.52832031 C-17.06608113 123.6694879 -26.65404766 120.9623069 -34.75 115.3125 C-35.85021484 114.55839844 -35.85021484 114.55839844 -36.97265625 113.7890625 C-50.60797464 103.82569091 -59.30953128 90.59414287 -62.31640625 73.87890625 C-64.59028521 55.17573966 -60.91033662 38.44515982 -49.75 23.3125 C-48.99783203 22.2915625 -48.99783203 22.2915625 -48.23046875 21.25 C-40.096948 11.11773084 -28.98393494 5.91564522 -16.75 2.3125 C-16.12512695 2.12631104 -15.50025391 1.94012207 -14.85644531 1.74829102 C-9.86258474 0.36445755 -5.17117422 -0.03860755 0 0 Z M-40.75 23.3125 C-51.84954273 36.82927648 -57.03189925 51.92415701 -55.75 69.3125 C-53.62261127 84.18488123 -46.087854 98.2168247 -34.08203125 107.33984375 C-19.57698497 117.01669409 -4.35922152 120.14831625 12.75 117.125 C27.60183542 113.91258087 39.1315009 105.39362429 48.25 93.3125 C56.08261517 80.19968903 58.08657908 64.73052944 55.1875 49.875 C51.15185898 34.17026489 42.99410599 22.84208859 29.25 14.3125 C7.69885624 3.30056074 -23.6418346 3.988251 -40.75 23.3125 Z " fill="#E4C590" transform="translate(175.75,11.6875)"/>
<path d="M0 0 C3.58954351 2.77326248 6.81355284 5.77587526 10 9 C11.0828125 10.04994141 11.0828125 10.04994141 12.1875 11.12109375 C22.83928687 22.11583588 26.97195676 36.96984586 27.375 52 C26.91245834 69.95868273 20.31624742 86.60332151 7.26171875 99.0859375 C-8.561007 112.47649988 -26.859882 115.56721999 -47 114 C-64.12343844 111.57122214 -78.82136749 102.55281066 -89.21875 88.7890625 C-98.03119608 74.99062719 -102.49512359 57.66311795 -99.25 41.4375 C-98.85691075 39.95189373 -98.43835832 38.47288395 -98 37 C-97.74347656 36.07703125 -97.48695313 35.1540625 -97.22265625 34.203125 C-92.34181983 18.03142664 -83.1208153 5.82445166 -68.33178711 -2.3684082 C-46.94619908 -13.58397398 -20.5138079 -13.14987686 0 0 Z M-79.23828125 15.3203125 C-88.02936009 25.6179604 -92.41452998 38.27912787 -92.3125 51.75 C-92.30686035 52.53713379 -92.3012207 53.32426758 -92.29541016 54.13525391 C-92.01291913 67.81509149 -87.49587269 81.10698212 -77.97265625 91.1953125 C-65.57521818 102.53712713 -50.60502089 108.46825185 -33.828125 108.2109375 C-18.27398495 107.05082208 -4.25837864 100.75179859 6.5625 89.5 C15.65566731 78.55490617 20.84191424 63.86740366 20.28125 49.6171875 C18.47883785 32.84474109 12.26288364 20.32841256 0 9 C-23.94686808 -9.98644541 -58.49483626 -6.18336346 -79.23828125 15.3203125 Z " fill="#E4C590" transform="translate(782,22)"/>
<path d="M0 0 C13.27591497 10.63475583 21.41189198 23.97179742 23.96875 40.90234375 C24.05125 42.18109375 24.13375 43.45984375 24.21875 44.77734375 C24.29609375 45.96650391 24.29609375 45.96650391 24.375 47.1796875 C24.96951333 64.0490031 19.47699706 79.85934434 8.59375 92.71484375 C-0.58411094 102.04730878 -11.02015603 107.8284252 -23.78125 110.77734375 C-24.52503906 110.96683594 -25.26882813 111.15632813 -26.03515625 111.3515625 C-43.82315936 114.10958859 -62.47410794 111.42208855 -77.3671875 100.9609375 C-90.78153968 90.66854416 -98.96443243 77.09320862 -102.46875 60.52734375 C-103.99417925 42.22219271 -100.57619892 25.68554892 -89.57421875 10.7890625 C-66.9965296 -15.26820046 -28.31589554 -20.1596865 0 0 Z M-82.78125 13.77734375 C-93.28694377 27.72752728 -96.49461909 42.56436211 -94.78125 59.77734375 C-93.15586573 68.99967558 -89.72807677 77.48676286 -83.78125 84.77734375 C-83.01683594 85.75316406 -82.25242187 86.72898437 -81.46484375 87.734375 C-72.45912263 98.44987309 -58.39178261 104.21471084 -44.78125 105.77734375 C-28.57642337 107.04448809 -13.30452548 102.00958233 -0.8046875 91.67578125 C10.89266677 80.70104346 16.34258734 66.3825739 17.1796875 50.6171875 C17.34491568 34.37525771 11.25789093 21.04491062 0.0546875 9.55859375 C-11.60589458 -1.48393628 -26.31373301 -5.6494882 -42.109375 -5.50390625 C-58.26273388 -4.2666277 -71.72788356 1.84377049 -82.78125 13.77734375 Z " fill="#E4C590" transform="translate(639.78125,24.22265625)"/>
<path d="M0 0 C2.68160951 2.04232285 4.03058085 3.84267374 5.375 6.9375 C4.385 7.9275 3.395 8.9175 2.375 9.9375 C-1.05799732 8.68370967 -3.76210022 7.23823086 -6.6875 5.0625 C-18.68253381 -3.12776515 -34.6108083 -5.01032124 -48.703125 -2.37890625 C-62.70959767 0.64089125 -75.24104816 6.92061887 -83.69921875 18.8671875 C-92.82007803 33.89652794 -95.15518517 50.72466491 -91.0625 67.8125 C-88.34782513 76.86141625 -83.77461895 84.68158342 -76.625 90.9375 C-75.87669922 91.65486328 -75.87669922 91.65486328 -75.11328125 92.38671875 C-64.20837416 102.4782062 -49.29332077 106.34819617 -34.7109375 106.1484375 C-23.94869697 105.41279068 -12.50951922 102.58074559 -3.99942017 95.60501099 C-2.27956081 93.51839698 -2.23791797 92.43669333 -2.20849609 89.75732422 C-2.18364639 88.50119827 -2.18364639 88.50119827 -2.15829468 87.21969604 C-2.15504181 86.31961823 -2.15178894 85.41954041 -2.1484375 84.4921875 C-2.13285797 83.56657013 -2.11727844 82.64095276 -2.10122681 81.68728638 C-2.05365944 78.72903274 -2.02592242 75.7710159 -2 72.8125 C-1.96356066 69.84700898 -1.92299971 66.88165373 -1.87734985 63.91629028 C-1.85003538 62.07007773 -1.82872261 60.22376529 -1.81381226 58.37741089 C-1.73566202 52.04816202 -1.73566202 52.04816202 -0.625 50.9375 C1.875 50.8125 1.875 50.8125 4.375 50.9375 C5.92179607 52.48429607 5.57872657 53.99170882 5.66308594 56.14672852 C5.71622955 57.4893148 5.71622955 57.4893148 5.77044678 58.85902405 C5.89440148 62.98124101 5.98509807 67.10332206 6.0546875 71.22680664 C6.10130566 73.39697901 6.16943336 75.56680308 6.25976562 77.7355957 C6.99792565 95.76405252 6.99792565 95.76405252 3.00927734 101.10571289 C0.19098644 103.16944726 -2.4106612 104.59520486 -5.625 105.9375 C-6.92372562 106.69637981 -8.21737538 107.46421321 -9.5 108.25 C-26.19755662 115.76390048 -47.64195569 115.23584756 -64.625 108.9375 C-82.37903471 101.02771214 -92.6151596 87.60310353 -99.625 69.9375 C-104.08954357 52.72393896 -102.11497624 34.98632912 -93.76953125 19.33203125 C-85.65375225 5.8545226 -73.25191343 -2.82214912 -58.625 -8.0625 C-57.78710938 -8.38347656 -56.94921875 -8.70445313 -56.0859375 -9.03515625 C-38.04601217 -15.03915617 -15.31787483 -10.94923905 0 0 Z " fill="#E4C590" transform="translate(504.625,23.0625)"/>
<path d="M0 0 C1.31070465 0.00303635 1.31070465 0.00303635 2.64788818 0.00613403 C3.56326355 0.00438171 4.47863892 0.00262939 5.42175293 0.00082397 C8.46329617 -0.00359604 11.5047818 -0.00065603 14.54632568 0.00271606 C16.65000418 0.00204307 18.75368261 0.00107308 20.85736084 -0.00018311 C25.27257017 -0.00166028 29.68775932 0.00049511 34.10296631 0.00515747 C39.77625129 0.01085477 45.44948897 0.00757587 51.12277222 0.00158501 C55.46861124 -0.00202007 59.81443896 -0.00088226 64.16027832 0.0017128 C66.25276698 0.00238222 68.34525666 0.00155314 70.43774414 -0.00076675 C73.35677834 -0.00329241 76.27573481 0.00054609 79.19476318 0.00613403 C80.06856628 0.0041098 80.94236938 0.00208557 81.84265137 0 C87.80706333 0.02126621 87.80706333 0.02126621 88.92132568 1.13552856 C88.92132568 3.11552856 88.92132568 5.09552856 88.92132568 7.13552856 C74.40132568 7.13552856 59.88132568 7.13552856 44.92132568 7.13552856 C44.92132568 45.08552856 44.92132568 83.03552856 44.92132568 122.13552856 C42.61132568 122.13552856 40.30132568 122.13552856 37.92132568 122.13552856 C37.92132568 84.18552856 37.92132568 46.23552856 37.92132568 7.13552856 C23.40132568 7.13552856 8.88132568 7.13552856 -6.07867432 7.13552856 C-7.07867432 6.13552856 -7.07867432 6.13552856 -7.20367432 3.63552856 C-6.96225208 -1.19291622 -4.1766653 0.01489197 0 0 Z " fill="#E4C590" transform="translate(16.07867431640625,12.864471435546875)"/>
</svg>
