<?xml version="1.0" encoding="iso-8859-1"?>
<!-- Uploaded to: SVG Repo, www.svgrepo.com, Generator: SVG Repo Mixer Tools -->
<!DOCTYPE svg PUBLIC "-//W3C//DTD SVG 1.1//EN" "http://www.w3.org/Graphics/SVG/1.1/DTD/svg11.dtd">
<svg height="800px" width="800px" version="1.1" id="Capa_1" xmlns="http://www.w3.org/2000/svg" xmlns:xlink="http://www.w3.org/1999/xlink" 
	 viewBox="0 0 493.145 493.145" xml:space="preserve">
<path id="cutlery-3" style="fill:#fff;" d="M469.096,422.771l-186.67-153.395c5.264-6.447,5.12-15.838-0.886-21.834
	c-4.473-4.465-10.848-5.62-16.48-3.857c-19.64-19.101-66.423-64.778-120.426-118.79C73.193,53.464,10.82,0,10.82,0
	S-3.839,130.496,67.602,201.927c58.305,58.314,107.812,107.35,166.292,81.178c0.666,2.913,1.843,5.709,4.105,7.983
	c3.201,3.2,7.39,4.797,11.584,4.797c3.669,0,7.247-1.452,10.245-3.916l153.418,186.697c7.08,8.64,17.55,13.872,28.707,14.43
	c11.185,0.563,22.077-3.663,29.998-11.58c7.921-7.921,12.128-18.8,11.566-29.997C482.99,440.32,477.718,429.905,469.096,422.771z
	 M45.179,110.864c-11.688-11.679-14.318-27.997-5.88-36.426c8.437-8.446,24.751-5.808,36.43,5.871
	c11.683,11.692,14.318,27.997,5.879,36.426C73.166,125.187,56.866,122.562,45.179,110.864z M151.489,207.815
	c-13.288,13.293-38.966,9.153-57.357-9.246c-18.399-18.4-22.535-44.077-9.256-57.352c13.279-13.279,38.957-9.14,57.356,9.246
	C160.624,168.859,164.764,194.536,151.489,207.815z M218.695,253.826c-8.438,8.446-24.747,5.808-36.435-5.871
	c-11.688-11.692-14.317-27.997-5.88-36.426c8.438-8.447,24.751-5.808,36.435,5.871C224.503,229.079,227.137,245.398,218.695,253.826
	z"/>
</svg>