<?xml version="1.0" encoding="UTF-8"?>
<svg version="1.1" xmlns="http://www.w3.org/2000/svg" width="341" height="269">
<path d="M0 0 C112.53 0 225.06 0 341 0 C341 88.77 341 177.54 341 269 C228.47 269 115.94 269 0 269 C0 180.23 0 91.46 0 0 Z " fill="#010101" transform="translate(0,0)"/>
<path d="M0 0 C0.66999023 0.09651855 1.33998047 0.19303711 2.03027344 0.29248047 C12.87583249 1.8855691 22.79066848 5.09568881 33 9 C32.01 12.3 31.02 15.6 30 19 C29.01644531 18.75765625 28.03289062 18.5153125 27.01953125 18.265625 C18.69545133 16.2448618 10.3518917 14.41894506 1.9375 12.8125 C1.07036377 12.64588867 0.20322754 12.47927734 -0.69018555 12.30761719 C-9.99222668 10.56073816 -18.84930456 9.81816998 -28.3125 9.8125 C-29.90868164 9.79413086 -29.90868164 9.79413086 -31.53710938 9.77539062 C-51.92598519 9.73807115 -70.50620556 17.00249724 -85.3359375 31.1484375 C-103.94669119 51.06903896 -110.95057433 75.73668517 -110.140625 102.61181641 C-109.82625729 107.95060964 -108.50062938 112.89396237 -107 118 C-106.73316406 119.13695312 -106.46632812 120.27390625 -106.19140625 121.4453125 C-101.45821586 140.58843807 -87.1821671 158.46286292 -70.828125 169.33984375 C-44.64789776 184.70807107 -15.00303513 185.10278411 14 178 C20.435 176.02 20.435 176.02 27 174 C27.495 135.39 27.495 135.39 28 96 C31.96 96 35.92 96 40 96 C40 124.05 40 152.1 40 181 C36.7 182.32 33.4 183.64 30 185 C28.4325 185.680625 26.865 186.36125 25.25 187.0625 C19.02737607 189.54959891 12.57320793 190.79645489 6 192 C5.16025635 192.17136475 4.3205127 192.34272949 3.45532227 192.51928711 C-4.43593648 194.01783053 -12.17780885 194.34046677 -20.18041992 194.31567383 C-22.29984327 194.31251884 -24.41785761 194.33605512 -26.53710938 194.36132812 C-39.43232062 194.42340884 -51.72316294 192.62557859 -63.625 187.375 C-64.82600342 186.85341309 -64.82600342 186.85341309 -66.05126953 186.32128906 C-88.50702846 176.21777481 -107.78374419 156.65289298 -116.765625 133.640625 C-118.30620703 129.46378447 -119.75432849 125.27458262 -121 121 C-121.19650146 120.35119873 -121.39300293 119.70239746 -121.59545898 119.03393555 C-123.55741202 111.62666868 -123.35342535 104.042941 -123.3125 96.4375 C-123.31034485 95.72312775 -123.3081897 95.00875549 -123.30596924 94.2727356 C-123.17320189 66.92688313 -115.27189099 45.71037005 -97 25 C-96.44957031 24.36578125 -95.89914063 23.7315625 -95.33203125 23.078125 C-88.53262841 15.75827404 -79.38447162 9.50720752 -70.09765625 5.8515625 C-67.84581681 4.97631298 -67.84581681 4.97631298 -65.1953125 3.53515625 C-45.69777547 -5.83224235 -20.7704954 -3.21675874 0 0 Z " fill="#F5F5F5" transform="translate(280,46)"/>
<path d="M0 0 C46.53 0 93.06 0 141 0 C141 3.63 141 7.26 141 11 C119.55 11 98.1 11 76 11 C76 69.74 76 128.48 76 189 C72.37 189 68.74 189 65 189 C65 130.26 65 71.52 65 11 C43.55 11 22.1 11 0 11 C0 7.37 0 3.74 0 0 Z " fill="#F8F8F8" transform="translate(19,47)"/>
<path d="M0 0 C0.66 0.33 1.32 0.66 2 1 C-3.28 6.28 -8.56 11.56 -14 17 C-14.66 16.67 -15.32 16.34 -16 16 C-14.27538679 14.07906479 -12.54557391 12.163278 -10.8125 10.25 C-10.32974609 9.71117188 -9.84699219 9.17234375 -9.34960938 8.6171875 C-6.43837795 5.41287909 -3.47293499 2.6158121 0 0 Z " fill="#2D2D2D" transform="translate(203,69)"/>
</svg>
